<svg width="20" height="20" viewBox="0 0 20 20" fill="none" xmlns="http://www.w3.org/2000/svg">
<g clip-path="url(#clip0_273_3256)">
<path d="M19.9719 11.6195C19.9719 11.6194 19.9719 11.6193 19.9718 11.6192L16.1958 2.24478C16.1156 2.04559 15.8873 1.94836 15.6858 2.02759C15.6857 2.02764 15.6855 2.02769 15.6854 2.02779L0.366301 8.05888C0.303828 8.08556 0.249648 8.12816 0.209259 8.18232C0.0818583 8.24777 0.00137412 8.37733 0 8.51925V18.6118C0 18.8262 0.175789 19 0.392606 19H16.882C17.0989 19 17.2746 18.8262 17.2746 18.6118V13.0997L19.7528 12.1239C19.9542 12.0444 20.0523 11.8186 19.9719 11.6195ZM16.4894 18.2236H0.785211V8.90743H16.4894V18.2236ZM6.55063 8.13302L13.1244 5.54311C13.7111 6.15283 14.5241 6.49938 15.3752 6.50268L16.0309 8.13302H6.55063ZM17.2746 12.2659V8.51925C17.2746 8.30488 17.0989 8.13108 16.882 8.13108H16.8758L16.0438 6.0652C16.0346 6.04798 16.0239 6.03158 16.0116 6.01629C15.9695 5.82934 15.7944 5.70177 15.6014 5.7174C14.8094 5.78877 14.0346 5.45892 13.5429 4.8409C13.4206 4.69159 13.2055 4.65448 13.0392 4.75395C13.0206 4.75613 13.0021 4.75953 12.9839 4.76404L4.95822 7.92379C4.8611 7.96144 4.78341 8.03612 4.74268 8.13108H2.30538L15.6116 2.89264L19.0975 11.547L17.2746 12.2659Z" fill="#7C3BED" stroke="#7C3BED" stroke-width="0.4"/>
<path d="M1.85063 15.6034C2.61288 15.8261 3.20934 16.4151 3.43558 17.1685C3.4852 17.3329 3.63817 17.4456 3.8117 17.4457C3.83206 17.4444 3.85228 17.4414 3.87216 17.4367C3.88978 17.4417 3.90779 17.4453 3.92595 17.4476H13.3485C13.3647 17.4455 13.3807 17.4423 13.3964 17.4379C13.5925 17.4851 13.7902 17.3661 13.838 17.1722C13.8381 17.1715 13.8383 17.1708 13.8385 17.1701C14.0641 16.4159 14.6607 15.8261 15.4234 15.603C15.6084 15.5471 15.7233 15.3648 15.6927 15.176C15.698 15.1572 15.7018 15.138 15.7041 15.1185V12.0131C15.7018 11.9937 15.6979 11.9745 15.6923 11.9557C15.7231 11.7668 15.6081 11.5844 15.423 11.5287C14.6603 11.3056 14.0639 10.7156 13.8388 9.96124C13.782 9.7771 13.5959 9.66317 13.4038 9.69495C13.3857 9.68995 13.3672 9.68631 13.3485 9.68408H3.92595C3.90617 9.68641 3.88659 9.69029 3.86745 9.69573C3.67649 9.66564 3.49226 9.77923 3.43558 9.96202C3.20978 10.716 2.61327 11.3056 1.85063 11.5287C1.66567 11.5846 1.55073 11.7668 1.58131 11.9557C1.5762 11.9746 1.57252 11.9937 1.57031 12.0131V15.1185C1.57257 15.1368 1.57625 15.1548 1.58131 15.1725C1.54911 15.3626 1.66429 15.5468 1.85063 15.6034ZM2.35552 12.1707C3.14388 11.8577 3.76871 11.2399 4.08534 10.4604H13.1887C13.5055 11.2399 14.1305 11.8577 14.9189 12.1707V14.9609C14.1308 15.2743 13.5061 15.892 13.1891 16.6712H4.08534C3.76836 15.892 3.14363 15.2743 2.35552 14.9609V12.1707Z" fill="#7C3BED" stroke="#7C3BED" stroke-width="0.4"/>
<path d="M8.63688 15.8944C9.93788 15.8944 10.9925 14.8517 10.9925 13.5654C10.9925 12.2791 9.93788 11.2363 8.63688 11.2363C7.33589 11.2363 6.28125 12.2791 6.28125 13.5654C6.28253 14.8512 7.33643 15.8932 8.63688 15.8944ZM8.63688 12.0127C9.5042 12.0127 10.2073 12.7079 10.2073 13.5654C10.2073 14.4229 9.5042 15.1181 8.63688 15.1181C7.76957 15.1181 7.06646 14.4229 7.06646 13.5654C7.06646 12.7079 7.76957 12.0127 8.63688 12.0127Z" fill="#7C3BED" stroke="#7C3BED" stroke-width="0.4"/>
<path d="M4.3184 14.1479C4.64363 14.1479 4.90731 13.8872 4.90731 13.5657C4.90731 13.2441 4.64363 12.9834 4.3184 12.9834C3.99318 12.9834 3.72949 13.2441 3.72949 13.5657C3.72949 13.8873 3.99318 14.1479 4.3184 14.1479ZM4.3184 13.3716C4.42681 13.3716 4.5147 13.4585 4.5147 13.5657C4.5147 13.6728 4.42681 13.7598 4.3184 13.7598C4.20999 13.7598 4.1221 13.6728 4.1221 13.5657C4.1221 13.4585 4.20999 13.3716 4.3184 13.3716Z" fill="#7C3BED" stroke="#7C3BED" stroke-width="0.4"/>
<path d="M12.9561 14.1479C13.2813 14.1479 13.545 13.8872 13.545 13.5657C13.545 13.2441 13.2813 12.9834 12.9561 12.9834C12.6309 12.9834 12.3672 13.2441 12.3672 13.5657C12.3672 13.8873 12.6309 14.1479 12.9561 14.1479ZM12.9561 13.3716C13.0645 13.3716 13.1524 13.4585 13.1524 13.5657C13.1524 13.6728 13.0645 13.7598 12.9561 13.7598C12.8477 13.7598 12.7598 13.6728 12.7598 13.5657C12.7598 13.4585 12.8477 13.3716 12.9561 13.3716Z" fill="#7C3BED" stroke="#7C3BED" stroke-width="0.4"/>
</g>
<defs>
<clipPath id="clip0_273_3256">
<rect width="20" height="20" fill="white"/>
</clipPath>
</defs>
</svg>
