<svg width="20" height="20" viewBox="0 0 20 20" fill="none" xmlns="http://www.w3.org/2000/svg">
<path d="M10.4887 2.15484C10.1762 1.84225 9.75232 1.6666 9.31033 1.6665H3.33366C2.89163 1.6665 2.46771 1.8421 2.15515 2.15466C1.84259 2.46722 1.66699 2.89114 1.66699 3.33317V9.30984C1.66709 9.75183 1.84274 10.1757 2.15533 10.4882L9.40866 17.7415C9.78742 18.1179 10.2997 18.3291 10.8337 18.3291C11.3676 18.3291 11.8799 18.1179 12.2587 17.7415L17.742 12.2582C18.1184 11.8794 18.3296 11.3671 18.3296 10.8332C18.3296 10.2992 18.1184 9.78693 17.742 9.40817L10.4887 2.15484Z" stroke="#7C3BED" stroke-width="1.66667" stroke-linecap="round" stroke-linejoin="round"/>
<path d="M6.24967 6.66683C6.47979 6.66683 6.66634 6.48028 6.66634 6.25016C6.66634 6.02004 6.47979 5.8335 6.24967 5.8335C6.01956 5.8335 5.83301 6.02004 5.83301 6.25016C5.83301 6.48028 6.01956 6.66683 6.24967 6.66683Z" fill="#7C3BED" stroke="#7C3BED" stroke-width="1.66667" stroke-linecap="round" stroke-linejoin="round"/>
</svg>
