<svg width="30" height="27" viewBox="0 0 30 27" fill="none" xmlns="http://www.w3.org/2000/svg">
<g clip-path="url(#clip0_328_4212)">
<mask id="mask0_328_4212" style="mask-type:luminance" maskUnits="userSpaceOnUse" x="0" y="0" width="31" height="28">
<path d="M30.4191 0H0.652344V27.8058H30.4191V0Z" fill="white"/>
</mask>
<g mask="url(#mask0_328_4212)">
<path d="M23.133 16.5322C21.0641 16.5322 19.3809 18.1045 19.3809 20.0371C19.3809 21.9699 21.0641 23.5421 23.133 23.5421C25.2023 23.5421 26.8851 21.9699 26.8851 20.0371C26.8851 18.1045 25.202 16.5322 23.133 16.5322ZM23.133 21.7897C22.0984 21.7897 21.2569 21.0036 21.2569 20.0371C21.2569 19.0707 22.0984 18.2847 23.133 18.2847C24.1676 18.2847 25.0091 19.0707 25.0091 20.0371C25.0091 21.0037 24.1676 21.7897 23.133 21.7897Z" fill="#009152"/>
<path d="M10.3136 16.5322C8.2447 16.5322 6.56152 18.1045 6.56152 20.0371C6.56152 21.9699 8.2447 23.5421 10.3136 23.5421C12.3826 23.5421 14.0658 21.9699 14.0658 20.0371C14.0658 18.1045 12.3826 16.5322 10.3136 16.5322ZM10.3136 21.7897C9.27904 21.7897 8.43755 21.0036 8.43755 20.0371C8.43755 19.0707 9.27904 18.2847 10.3136 18.2847C11.348 18.2847 12.1897 19.0707 12.1897 20.0371C12.1897 21.0037 11.3483 21.7897 10.3136 21.7897Z" fill="#009152"/>
<path d="M25.6604 6.50011C25.501 6.20423 25.1767 6.01758 24.8221 6.01758H19.8818V7.77008H24.2436L26.7979 12.5157L28.4745 11.7282L25.6604 6.50011Z" fill="#009152"/>
<path d="M20.3194 19.1904H13.2217V20.9429H20.3194V19.1904Z" fill="#009152"/>
<path d="M7.50033 19.1904H4.24855C3.73043 19.1904 3.31055 19.5827 3.31055 20.0666C3.31055 20.5507 3.73048 20.9429 4.24855 20.9429H7.50039C8.0185 20.9429 8.43837 20.5506 8.43837 20.0666C8.43837 19.5826 8.01842 19.1904 7.50033 19.1904Z" fill="#009152"/>
<path d="M30.2225 13.8331L28.3774 11.6133C28.2001 11.3995 27.9266 11.2745 27.6367 11.2745H20.8204V5.14085C20.8204 4.65686 20.4004 4.26465 19.8824 4.26465H4.24855C3.73043 4.26465 3.31055 4.65691 3.31055 5.14085C3.31055 5.62479 3.73048 6.01706 4.24855 6.01706H18.9443V12.1507C18.9443 12.6346 19.3642 13.0269 19.8823 13.0269H27.1773L28.5434 14.6706V19.1897H25.9482C25.4301 19.1897 25.0102 19.582 25.0102 20.0659C25.0102 20.5499 25.4301 20.9422 25.9482 20.9422H29.4814C29.9996 20.9422 30.4194 20.5499 30.4195 20.0659V14.3705C30.4195 14.176 30.3501 13.9867 30.2225 13.8331Z" fill="#009152"/>
<path d="M7.43655 14.75H3.1216C2.60346 14.75 2.18359 15.1422 2.18359 15.6262C2.18359 16.1102 2.60353 16.5024 3.1216 16.5024H7.43649C7.95462 16.5024 8.37449 16.1102 8.37449 15.6262C8.37457 15.1422 7.95462 14.75 7.43655 14.75Z" fill="#009152"/>
<path d="M9.59484 11.3037H1.59034C1.07228 11.3037 0.652344 11.6959 0.652344 12.18C0.652344 12.664 1.07228 13.0562 1.59034 13.0562H9.59484C10.113 13.0562 10.5328 12.6639 10.5328 12.18C10.5328 11.696 10.113 11.3037 9.59484 11.3037Z" fill="#009152"/>
<path d="M11.1261 7.85742H3.1216C2.60346 7.85742 2.18359 8.24964 2.18359 8.73361C2.18359 9.21759 2.60353 9.6098 3.1216 9.6098H11.1261C11.6442 9.6098 12.0641 9.21751 12.0641 8.73361C12.0642 8.24964 11.6442 7.85742 11.1261 7.85742Z" fill="#009152"/>
</g>
</g>
<defs>
<clipPath id="clip0_328_4212">
<rect width="30" height="27" fill="white"/>
</clipPath>
</defs>
</svg>
