<svg width="20" height="20" viewBox="0 0 20 20" fill="none" xmlns="http://www.w3.org/2000/svg">
<path d="M5.11075 17.5002C4.12909 17.5002 3.33325 16.6836 3.33325 15.6752V8.34023C3.33325 7.78606 3.57909 7.26106 3.99992 6.91523L8.88909 2.90023C9.20147 2.64155 9.59433 2.5 9.99992 2.5C10.4055 2.5 10.7984 2.64155 11.1108 2.90023L15.9991 6.91523C16.4208 7.26106 16.6666 7.78606 16.6666 8.34023V15.6752C16.6666 16.6836 15.8708 17.5002 14.8891 17.5002H5.11075Z" stroke="#07337F" stroke-width="1.5" stroke-linecap="round" stroke-linejoin="round"/>
<path d="M7.9165 17.5V12.9167C7.9165 12.4746 8.0921 12.0507 8.40466 11.7382C8.71722 11.4256 9.14114 11.25 9.58317 11.25H10.4165C10.8585 11.25 11.2825 11.4256 11.595 11.7382C11.9076 12.0507 12.0832 12.4746 12.0832 12.9167V17.5" stroke="#07337F" stroke-width="1.5" stroke-linecap="round" stroke-linejoin="round"/>
</svg>
