<svg width="20" height="20" viewBox="0 0 20 20" fill="none" xmlns="http://www.w3.org/2000/svg">
<path d="M6.25 15C6.94036 15 7.5 15.5597 7.5 16.25C7.5 16.9403 6.94036 17.5 6.25 17.5C5.55964 17.5 5 16.9403 5 16.25C5 15.5597 5.55964 15 6.25 15Z" stroke="#333333" stroke-width="1.5"/>
<path d="M13.75 15C14.4403 15 15 15.5596 15 16.25C15 16.9403 14.4403 17.5 13.75 17.5C13.0597 17.5 12.5 16.9403 12.5 16.25C12.5 15.5596 13.0597 15 13.75 15Z" stroke="#333333" stroke-width="1.5"/>
<path d="M1.87397 1.91055C1.54833 1.79606 1.19154 1.96723 1.07706 2.29287C0.962564 2.61851 1.13374 2.9753 1.45937 3.08978L1.87397 1.91055ZM17.2148 8.23579L17.8269 8.362L17.8278 8.35817L17.2148 8.23579ZM4.75674 8.1335V5.86547H3.50674V8.1335H4.75674ZM2.09165 1.98708L1.87397 1.91055L1.45937 3.08978L1.67705 3.16632L2.09165 1.98708ZM9.11459 13.5418H13.5337V12.2918H9.11459V13.5418ZM4.75674 5.86547C4.75674 5.27617 4.75759 4.78442 4.71433 4.38481C4.66956 3.97116 4.57255 3.59389 4.33756 3.25003L3.30551 3.95528C3.38073 4.06535 3.43881 4.21653 3.47159 4.51933C3.50589 4.83617 3.50674 5.24884 3.50674 5.86547H4.75674ZM1.67705 3.16632C2.23339 3.36192 2.59901 3.49154 2.86806 3.62355C3.12074 3.74753 3.23213 3.84789 3.30551 3.95528L4.33756 3.25003C4.10075 2.90348 3.78587 2.68153 3.41868 2.50136C3.06783 2.32921 2.61996 2.17283 2.09165 1.98708L1.67705 3.16632ZM3.50674 8.1335C3.50674 9.34392 3.5181 10.2168 3.63231 10.8836C3.75424 11.5955 3.99769 12.1053 4.45288 12.5853L5.35999 11.7253C5.09319 11.4439 4.94928 11.1683 4.86436 10.6726C4.77173 10.1317 4.75674 9.37433 4.75674 8.1335H3.50674ZM9.11459 12.2918C7.93391 12.2918 7.1147 12.2903 6.49747 12.2028C5.9018 12.1183 5.58711 11.9648 5.35999 11.7253L4.45288 12.5853C4.94776 13.1073 5.57511 13.3346 6.32197 13.4404C7.04729 13.5433 7.97113 13.5418 9.11459 13.5418V12.2918ZM4.13174 5.72517H14.2407V4.47517H4.13174V5.72517ZM16.6027 8.10963L16.1863 10.1303L17.4105 10.3826L17.8269 8.362L16.6027 8.10963ZM14.2407 5.72517C14.9543 5.72517 15.5824 5.726 16.0781 5.78141C16.3244 5.80894 16.5088 5.84719 16.6383 5.89271C16.7728 5.93997 16.7942 5.97623 16.7834 5.96216L17.7742 5.19998C17.5783 4.94547 17.303 4.80138 17.0527 4.71339C16.7973 4.62365 16.5084 4.57173 16.217 4.53915C15.6372 4.47433 14.9312 4.47517 14.2407 4.47517V5.72517ZM17.8278 8.35817C17.9688 7.65156 18.0885 7.0587 18.1178 6.58382C18.1479 6.09532 18.0923 5.61364 17.7742 5.19998L16.7834 5.96216C16.8351 6.0294 16.8922 6.15048 16.8702 6.50681C16.8473 6.87676 16.7502 7.37082 16.6019 8.11346L17.8278 8.35817ZM13.5337 13.5418C14.1684 13.5418 14.7011 13.5429 15.1305 13.4903C15.5769 13.4358 15.9841 13.3163 16.3395 13.0267L15.5498 12.0577C15.4455 12.1427 15.2976 12.2106 14.9787 12.2497C14.6427 12.2908 14.1998 12.2918 13.5337 12.2918V13.5418ZM16.1863 10.1303C16.0518 10.7826 15.9613 11.2163 15.8532 11.537C15.7506 11.8414 15.6542 11.9727 15.5498 12.0577L16.3395 13.0267C16.6949 12.737 16.8941 12.3623 17.0378 11.9362C17.1759 11.5262 17.2823 11.0043 17.4105 10.3826L16.1863 10.1303Z" fill="#333333"/>
</svg>
