<svg width="20" height="20" viewBox="0 0 20 20" fill="none" xmlns="http://www.w3.org/2000/svg">
<path d="M1.66602 5.83366L5.34102 2.15866C5.49606 2.00269 5.68045 1.87894 5.88354 1.79456C6.08664 1.71017 6.30442 1.66682 6.52435 1.66699H13.4743C13.6943 1.66682 13.9121 1.71017 14.1152 1.79456C14.3182 1.87894 14.5026 2.00269 14.6577 2.15866L18.3327 5.83366" stroke="#7C3BED" stroke-width="1.66667" stroke-linecap="round" stroke-linejoin="round"/>
<path d="M3.33398 10V16.6667C3.33398 17.1087 3.50958 17.5326 3.82214 17.8452C4.1347 18.1577 4.55862 18.3333 5.00065 18.3333H15.0007C15.4427 18.3333 15.8666 18.1577 16.1792 17.8452C16.4917 17.5326 16.6673 17.1087 16.6673 16.6667V10" stroke="#7C3BED" stroke-width="1.66667" stroke-linecap="round" stroke-linejoin="round"/>
<path d="M12.5 18.333V14.9997C12.5 14.5576 12.3244 14.1337 12.0118 13.8212C11.6993 13.5086 11.2754 13.333 10.8333 13.333H9.16667C8.72464 13.333 8.30072 13.5086 7.98816 13.8212C7.6756 14.1337 7.5 14.5576 7.5 14.9997V18.333" stroke="#7C3BED" stroke-width="1.66667" stroke-linecap="round" stroke-linejoin="round"/>
<path d="M1.66602 5.83301H18.3327" stroke="#7C3BED" stroke-width="1.66667" stroke-linecap="round" stroke-linejoin="round"/>
<path d="M18.3327 5.83301V8.33301C18.3327 8.77504 18.1571 9.19896 17.8445 9.51152C17.532 9.82408 17.108 9.99967 16.666 9.99967C16.1791 9.97288 15.7141 9.78863 15.341 9.47467C15.2416 9.40282 15.122 9.36414 14.9993 9.36414C14.8767 9.36414 14.7571 9.40282 14.6577 9.47467C14.2846 9.78863 13.8196 9.97288 13.3327 9.99967C12.8458 9.97288 12.3808 9.78863 12.0077 9.47467C11.9082 9.40282 11.7887 9.36414 11.666 9.36414C11.5433 9.36414 11.4238 9.40282 11.3243 9.47467C10.9512 9.78863 10.4862 9.97288 9.99935 9.99967C9.51246 9.97288 9.04746 9.78863 8.67435 9.47467C8.57492 9.40282 8.45536 9.36414 8.33268 9.36414C8.21 9.36414 8.09045 9.40282 7.99102 9.47467C7.61791 9.78863 7.1529 9.97288 6.66602 9.99967C6.17913 9.97288 5.71412 9.78863 5.34102 9.47467C5.24158 9.40282 5.12203 9.36414 4.99935 9.36414C4.87667 9.36414 4.75712 9.40282 4.65768 9.47467C4.28457 9.78863 3.81957 9.97288 3.33268 9.99967C2.89065 9.99967 2.46673 9.82408 2.15417 9.51152C1.84161 9.19896 1.66602 8.77504 1.66602 8.33301V5.83301" stroke="#7C3BED" stroke-width="1.66667" stroke-linecap="round" stroke-linejoin="round"/>
</svg>
