<svg width="11" height="9" viewBox="0 0 11 9" fill="none" xmlns="http://www.w3.org/2000/svg">
<path d="M10.085 0.630285C10.085 0.463123 10.0186 0.302808 9.90035 0.184606C9.78215 0.0664049 9.62184 0 9.45468 0H0.630696C0.463534 0 0.303219 0.0664049 0.185018 0.184606C0.0668163 0.302808 0.000411987 0.463123 0.000411987 0.630285C0.000411987 0.797447 0.0668163 0.957762 0.185018 1.07596C0.303219 1.19416 0.463534 1.26057 0.630696 1.26057H9.45468C9.62184 1.26057 9.78215 1.19416 9.90035 1.07596C10.0186 0.957762 10.085 0.797447 10.085 0.630285ZM10.085 8.1937C10.085 8.02654 10.0186 7.86622 9.90035 7.74802C9.78215 7.62982 9.62184 7.56342 9.45468 7.56342H0.630696C0.463534 7.56342 0.303219 7.62982 0.185018 7.74802C0.0668163 7.86622 0.000411987 8.02654 0.000411987 8.1937C0.000411987 8.36086 0.0668163 8.52118 0.185018 8.63938C0.303219 8.75758 0.463534 8.82399 0.630696 8.82399H9.45468C9.62184 8.82399 9.78215 8.75758 9.90035 8.63938C10.0186 8.52118 10.085 8.36086 10.085 8.1937ZM5.67297 3.78171C5.84013 3.78171 6.00045 3.84811 6.11865 3.96631C6.23685 4.08452 6.30326 4.24483 6.30326 4.41199C6.30326 4.57915 6.23685 4.73947 6.11865 4.85767C6.00045 4.97587 5.84013 5.04228 5.67297 5.04228H0.630696C0.463534 5.04228 0.303219 4.97587 0.185018 4.85767C0.0668163 4.73947 0.000411987 4.57915 0.000411987 4.41199C0.000411987 4.24483 0.0668163 4.08452 0.185018 3.96631C0.303219 3.84811 0.463534 3.78171 0.630696 3.78171H5.67297Z" fill="black"/>
</svg>
