<svg width="20" height="27" viewBox="0 0 20 27" fill="none" xmlns="http://www.w3.org/2000/svg">
<g clip-path="url(#clip0_328_4230)">
<path d="M17.1749 11.2896V7.0856C17.1866 5.18335 16.4006 3.35426 14.9975 2.02043C13.641 0.71475 11.8653 0 9.98481 0C9.9557 0 9.92073 0 9.89162 0C5.88024 0.00562796 2.61991 3.1798 2.61991 7.0856V11.2896C1.10619 11.4641 0 12.6911 0 14.1768V23.6206C0 25.2245 1.32742 26.5471 2.9867 26.5471H16.814C18.4733 26.5471 19.8007 25.2245 19.8007 23.6206V14.1768C19.7949 12.6966 18.6887 11.4641 17.1749 11.2896ZM3.77849 7.0856H3.78431C3.78431 3.79887 6.52649 1.10871 9.89748 1.10871H9.90325C11.5043 1.10308 13.0413 1.71652 14.1766 2.80835C15.3585 3.93957 16.0164 5.48163 16.0048 7.0856V11.2953H14.7239V7.0856C14.7355 5.80805 14.2116 4.58115 13.2742 3.68069C12.3892 2.82523 11.19 2.34123 9.93822 2.34123H9.90325C7.22513 2.34123 5.05934 4.46859 5.05934 7.07997V11.2953H3.77849V7.0856ZM13.5653 7.0856V11.2953H6.22956V7.0856C6.22956 5.0933 7.87138 3.47245 9.90911 3.47245H9.94398C10.8872 3.47245 11.7954 3.83827 12.4649 4.48548C13.1752 5.17209 13.577 6.11196 13.5653 7.0856ZM18.6887 23.6374C18.6887 24.6223 17.862 25.4215 16.8431 25.4215H3.00999C1.99113 25.4215 1.1644 24.6223 1.1644 23.6374V14.205C1.1644 13.2201 1.99113 12.4209 3.00999 12.4209H16.8431C17.862 12.4209 18.6887 13.2201 18.6887 14.205V23.6374Z" fill="#009152"/>
<path d="M11.9111 18.5724C11.6549 17.7001 10.834 17.1035 9.8967 17.1035C8.73809 17.1035 7.79492 18.0096 7.79492 19.1352C7.79492 20.0413 8.41206 20.8348 9.31449 21.0825V22.6583C9.31449 22.9679 9.57649 23.2211 9.8967 23.2211C10.2169 23.2211 10.4789 22.9679 10.4789 22.6583V21.0825C11.5909 20.773 12.2371 19.6474 11.9111 18.5724ZM9.8967 20.0357C9.37848 20.0357 8.95933 19.6304 8.95933 19.1296C8.95933 18.6287 9.37848 18.2234 9.8967 18.2234C10.4148 18.2234 10.834 18.6287 10.834 19.1296C10.834 19.6304 10.4148 20.0357 9.8967 20.0357Z" fill="#009152"/>
</g>
<defs>
<clipPath id="clip0_328_4230">
<rect width="20" height="27" fill="white"/>
</clipPath>
</defs>
</svg>
