<svg width="40" height="40" viewBox="0 0 40 40" fill="none" xmlns="http://www.w3.org/2000/svg">
<path d="M36.6664 28.2V33.2C36.6683 33.6642 36.5732 34.1236 36.3872 34.5489C36.2013 34.9742 35.9286 35.356 35.5865 35.6698C35.2445 35.9836 34.8407 36.2225 34.401 36.3712C33.9613 36.5199 33.4953 36.5751 33.0331 36.5333C27.9044 35.9761 22.9781 34.2236 18.6497 31.4167C14.6228 28.8578 11.2086 25.4436 8.64973 21.4167C5.83302 17.0687 4.08013 12.1183 3.53306 6.96666C3.49141 6.50577 3.54618 6.04126 3.69389 5.6027C3.8416 5.16414 4.07901 4.76114 4.391 4.41936C4.70299 4.07758 5.08273 3.8045 5.50604 3.61753C5.92935 3.43055 6.38696 3.33376 6.84973 3.33332H11.8497C12.6586 3.32536 13.4427 3.61179 14.056 4.13921C14.6693 4.66663 15.0699 5.39907 15.1831 6.19999C15.3941 7.8001 15.7855 9.3712 16.3497 10.8833C16.574 11.4799 16.6225 12.1282 16.4896 12.7515C16.3566 13.3747 16.0478 13.9468 15.5997 14.4L13.4831 16.5167C15.8557 20.6892 19.3105 24.1441 23.4831 26.5167L25.5997 24.4C26.0529 23.9519 26.625 23.6431 27.2483 23.5101C27.8715 23.3772 28.5199 23.4257 29.1164 23.65C30.6285 24.2142 32.1996 24.6056 33.7997 24.8167C34.6093 24.9309 35.3487 25.3387 35.8773 25.9625C36.4058 26.5863 36.6867 27.3826 36.6664 28.2Z" stroke="#7C3BED" stroke-width="3.33333" stroke-linecap="round" stroke-linejoin="round"/>
</svg>
