<svg width="20" height="20" viewBox="0 0 20 20" fill="none" xmlns="http://www.w3.org/2000/svg">
<path d="M11.666 14.9997V4.99967C11.666 4.55765 11.4904 4.13372 11.1779 3.82116C10.8653 3.5086 10.4414 3.33301 9.99935 3.33301H3.33268C2.89065 3.33301 2.46673 3.5086 2.15417 3.82116C1.84161 4.13372 1.66602 4.55765 1.66602 4.99967V14.1663C1.66602 14.3874 1.75381 14.5993 1.91009 14.7556C2.06637 14.9119 2.27834 14.9997 2.49935 14.9997H4.16602" stroke="#7C3BED" stroke-width="1.66667" stroke-linecap="round" stroke-linejoin="round"/>
<path d="M12.5 15H7.5" stroke="#7C3BED" stroke-width="1.66667" stroke-linecap="round" stroke-linejoin="round"/>
<path d="M15.8327 15.0003H17.4993C17.7204 15.0003 17.9323 14.9125 18.0886 14.7562C18.2449 14.6 18.3327 14.388 18.3327 14.167V11.1253C18.3323 10.9362 18.2677 10.7528 18.1493 10.6053L15.2493 6.98033C15.1714 6.88273 15.0725 6.80389 14.96 6.74966C14.8475 6.69542 14.7242 6.66717 14.5993 6.66699H11.666" stroke="#7C3BED" stroke-width="1.66667" stroke-linecap="round" stroke-linejoin="round"/>
<path d="M14.1667 16.6663C15.0871 16.6663 15.8333 15.9201 15.8333 14.9997C15.8333 14.0792 15.0871 13.333 14.1667 13.333C13.2462 13.333 12.5 14.0792 12.5 14.9997C12.5 15.9201 13.2462 16.6663 14.1667 16.6663Z" stroke="#7C3BED" stroke-width="1.66667" stroke-linecap="round" stroke-linejoin="round"/>
<path d="M5.83268 16.6663C6.75316 16.6663 7.49935 15.9201 7.49935 14.9997C7.49935 14.0792 6.75316 13.333 5.83268 13.333C4.91221 13.333 4.16602 14.0792 4.16602 14.9997C4.16602 15.9201 4.91221 16.6663 5.83268 16.6663Z" stroke="#7C3BED" stroke-width="1.66667" stroke-linecap="round" stroke-linejoin="round"/>
</svg>
