<svg width="15" height="15" viewBox="0 0 15 15" fill="none" xmlns="http://www.w3.org/2000/svg">
<path d="M7.01819 0.863588C7.04741 0.804562 7.09254 0.754876 7.14849 0.720138C7.20445 0.6854 7.269 0.666992 7.33486 0.666992C7.40072 0.666992 7.46527 0.6854 7.52122 0.720138C7.57718 0.754876 7.62231 0.804562 7.65153 0.863588L9.19153 3.98292C9.29298 4.18823 9.44273 4.36586 9.62794 4.50056C9.81315 4.63525 10.0283 4.723 10.2549 4.75625L13.6989 5.26025C13.7641 5.26971 13.8254 5.29724 13.8759 5.33972C13.9263 5.38221 13.9638 5.43795 13.9842 5.50066C14.0046 5.56336 14.007 5.63053 13.9912 5.69455C13.9755 5.75857 13.9421 5.81689 13.8949 5.86292L11.4042 8.28826C11.2399 8.44832 11.117 8.64591 11.0461 8.86401C10.9751 9.08211 10.9582 9.31418 10.9969 9.54026L11.5849 12.9669C11.5964 13.0321 11.5893 13.0993 11.5645 13.1607C11.5397 13.2221 11.4981 13.2753 11.4446 13.3143C11.391 13.3532 11.3275 13.3763 11.2614 13.3809C11.1954 13.3854 11.1293 13.3714 11.0709 13.3403L7.99219 11.7216C7.78934 11.6151 7.56365 11.5594 7.33453 11.5594C7.10541 11.5594 6.87971 11.6151 6.67686 11.7216L3.59886 13.3403C3.54041 13.3712 3.47446 13.3851 3.40849 13.3804C3.34253 13.3757 3.2792 13.3526 3.22572 13.3137C3.17224 13.2748 3.13075 13.2217 3.10596 13.1604C3.08118 13.0991 3.0741 13.0321 3.08553 12.9669L3.67286 9.54092C3.71166 9.31474 3.69485 9.08252 3.62388 8.86429C3.55292 8.64605 3.42993 8.44836 3.26553 8.28826L0.774859 5.86359C0.727255 5.81761 0.693521 5.75919 0.6775 5.69497C0.66148 5.63076 0.663817 5.56333 0.684245 5.50038C0.704672 5.43743 0.74237 5.38148 0.793043 5.33891C0.843716 5.29634 0.905328 5.26885 0.970859 5.25959L4.41419 4.75625C4.64103 4.72325 4.85645 4.63563 5.04191 4.50091C5.22738 4.3662 5.37733 4.18844 5.47886 3.98292L7.01819 0.863588Z" fill="#F97415" stroke="#F97415" stroke-width="1.33333" stroke-linecap="round" stroke-linejoin="round"/>
</svg>
