<svg width="44" height="36" viewBox="0 0 44 36" fill="none" xmlns="http://www.w3.org/2000/svg">
<g clip-path="url(#clip0_282_2690)">
<mask id="mask0_282_2690" style="mask-type:luminance" maskUnits="userSpaceOnUse" x="0" y="0" width="43" height="37">
<path d="M42.3087 0H0.911133V36.3462H42.3087V0Z" fill="white"/>
</mask>
<g mask="url(#mask0_282_2690)">
<path d="M41.9425 12.546H38.0935C37.5008 5.53677 31.1077 0 23.3345 0C15.5614 0 9.16836 5.53677 8.57562 12.546H4.72653C4.08692 12.546 3.56836 13.0229 3.56836 13.6109V25.0164C3.56836 25.6045 4.08692 26.0812 4.72653 26.0812H9.68869C10.3283 26.0812 10.8469 25.6045 10.8469 25.0164V13.6109C10.8469 7.28012 16.4488 2.12966 23.3345 2.12966C30.2202 2.12966 35.8223 7.28012 35.8223 13.6109V25.0164C35.8223 28.8315 32.4462 31.9355 28.2967 31.9355H26.7837C26.2988 30.6112 24.9363 29.6544 23.3345 29.6544C21.3279 29.6544 19.6953 31.1554 19.6953 33.0003C19.6953 34.8453 21.3279 36.3462 23.3345 36.3462C24.9363 36.3462 26.2988 35.3895 26.7837 34.0652H28.2967C33.3317 34.0652 37.4951 30.5707 38.0701 26.0812H41.9425C42.5821 26.0812 43.1008 25.6045 43.1008 25.0164V13.6109C43.1008 13.0229 42.5821 12.546 41.9425 12.546ZM8.53052 23.9516H5.88471V14.6758H8.53052V23.9516ZM23.3345 34.2166C22.6051 34.2166 22.0116 33.6709 22.0116 33.0003C22.0116 32.3297 22.6051 31.7841 23.3345 31.7841C24.0639 31.7841 24.6575 32.3297 24.6575 33.0003C24.6575 33.6709 24.0639 34.2166 23.3345 34.2166ZM40.7844 23.9516H38.1386V14.6758H40.7844V23.9516Z" fill="#009152"/>
<path d="M31.8413 12.627C31.4086 12.4622 30.9105 12.5532 30.5792 12.8578C30.5792 12.8578 26.9632 16.1812 25.2487 17.7563C24.4788 18.4681 24.0371 19.4515 24.0371 20.4541C24.0371 21.0421 24.5557 21.519 25.1953 21.519H30.2398V23.8758C30.2398 24.4639 30.7585 24.9406 31.3981 24.9406C32.0377 24.9406 32.5562 24.4639 32.5562 23.8758V21.519H32.6385C33.2782 21.519 33.7967 21.0421 33.7967 20.4541C33.7967 19.8661 33.2782 19.3893 32.6385 19.3893H32.5562V13.6108C32.5562 13.1802 32.274 12.7919 31.8413 12.627ZM30.2398 19.3893H26.7632C26.8026 19.3444 26.8444 19.3014 26.8886 19.2604C27.7561 18.4635 29.1128 17.2167 30.2398 16.1808V19.3893Z" fill="#009152"/>
<path d="M22.0125 23.8756C22.0125 23.2875 21.494 22.8108 20.8544 22.8108H16.2195C16.2588 22.766 16.3007 22.7228 16.3449 22.682C18.057 21.1091 21.6732 17.7855 21.6732 17.7855C21.8904 17.5857 22.0126 17.3148 22.0126 17.0324V16.4621C22.0126 14.3026 20.1019 12.5459 17.7532 12.5459C15.3811 12.5459 13.4937 14.3129 13.4937 16.4609V16.4621C13.4937 17.05 14.0122 17.5263 14.6518 17.5263C15.2914 17.5263 15.81 17.049 15.81 16.4609C15.81 15.4847 16.6648 14.6755 17.7532 14.6755C18.8246 14.6755 19.6963 15.477 19.6963 16.4621V16.5911C18.7571 17.4543 16.1009 19.8955 14.7052 21.178C13.9351 21.8898 13.4937 22.8731 13.4937 23.8756C13.4937 24.4637 14.0122 24.9405 14.6518 24.9405H20.8544C21.494 24.9405 22.0125 24.4638 22.0125 23.8756Z" fill="#009152"/>
</g>
</g>
<defs>
<clipPath id="clip0_282_2690">
<rect width="43.278" height="35.4093" fill="white"/>
</clipPath>
</defs>
</svg>
