<svg width="91" height="13" viewBox="0 0 91 13" fill="none" xmlns="http://www.w3.org/2000/svg">
<g clip-path="url(#clip0_416_5756)">
<path d="M44.2033 2.81938C43.115 2.40288 42.0266 2.21065 40.7143 2.499C39.658 2.72326 38.8257 3.13976 38.2816 4.19702C38.5376 4.38924 38.7297 4.58147 38.9537 4.7737C39.3058 5.09409 39.658 5.38243 40.1381 5.7669C40.5222 5.22223 41.1944 4.61351 41.9306 4.58147C42.7628 4.54944 43.5631 5.03002 43.6911 5.70283C43.7551 5.99117 43.7871 7.14452 43.7871 7.14452L43.339 7.24065C43.307 7.24065 43.211 7.27266 43.0829 7.24065C43.0509 7.24065 43.0509 7.20859 43.0189 7.20859C42.9869 7.20859 42.9869 7.20859 42.9549 7.17658C41.9626 6.82412 41.0344 6.63191 40.1381 6.63191C39.818 6.63191 39.4979 6.66397 39.1778 6.69598C38.1855 6.85618 37.0332 7.40085 37.0332 9.19495C37.0332 9.86775 37.1933 10.3804 37.4814 10.7968C38.0255 11.5338 38.7937 11.9823 39.818 11.9823C40.9383 11.9823 41.9306 11.6939 42.8909 10.925C42.9229 10.925 43.115 10.7328 43.179 10.7008L43.7871 10.2202V10.9891V11.9823H46.3159V5.7669C46.2518 4.38924 45.4836 3.29995 44.2033 2.81938ZM43.403 8.58621C42.8589 9.54736 41.9946 10.092 40.9703 10.092C40.9383 10.092 40.8743 10.092 40.8423 10.092C40.6502 10.092 40.4262 10.06 40.2021 10.028C39.4339 9.83574 39.0178 9.22701 39.0498 8.394L39.0818 8.04159H43.7231L43.403 8.58621Z" fill="black"/>
<path d="M70.5159 2.81938C69.4277 2.40288 68.3395 2.21065 67.0269 2.499C65.9705 2.72326 65.1385 3.13976 64.5944 4.19702C64.8501 4.38924 65.0424 4.58147 65.2663 4.7737C65.6186 5.09409 65.9705 5.38243 66.4506 5.7669C66.8347 5.22223 67.5071 4.61351 68.2434 4.58147C69.0754 4.54944 69.8756 5.03002 70.004 5.70283C70.0679 5.99117 70.0996 7.14452 70.0996 7.14452L69.6517 7.24065C69.6195 7.24065 69.5238 7.27266 69.3955 7.24065C69.3638 7.24065 69.3638 7.20859 69.3316 7.20859C69.2994 7.20859 69.2994 7.20859 69.2676 7.17658C68.2751 6.82412 67.347 6.63191 66.4506 6.63191C66.1305 6.63191 65.8104 6.66397 65.4903 6.69598C64.4983 6.85618 63.3457 7.40085 63.3457 9.19495C63.3457 9.86775 63.5058 10.3804 63.7941 10.7968C64.3382 11.5338 65.1063 11.9823 66.1305 11.9823C67.2509 11.9823 68.2434 11.6939 69.2037 10.925C69.2354 10.925 69.4277 10.7328 69.4916 10.7008L70.0996 10.2202V10.9891V11.9823H72.6287V5.7669C72.5643 4.38924 71.8285 3.29995 70.5159 2.81938ZM69.7156 8.58621C69.1715 9.54736 68.3073 10.092 67.2831 10.092C67.2509 10.092 67.187 10.092 67.1548 10.092C66.963 10.092 66.739 10.06 66.515 10.028C65.7465 9.83574 65.3303 9.22701 65.3625 8.394L65.3947 8.04159H70.0357L69.7156 8.58621Z" fill="black"/>
<path d="M87.7366 2.81938C86.6484 2.40288 85.5602 2.21065 84.2476 2.499C83.1912 2.72326 82.3592 3.13976 81.8151 4.19702C82.0708 4.38924 82.2631 4.58147 82.487 4.7737C82.8393 5.09409 83.1912 5.38243 83.6713 5.7669C84.0558 5.22223 84.7278 4.61351 85.4641 4.58147C86.2961 4.54944 87.0964 5.03002 87.2247 5.70283C87.2886 5.99117 87.3203 7.14452 87.3203 7.14452L86.8724 7.24065C86.8402 7.24065 86.7445 7.27266 86.6162 7.24065C86.5845 7.24065 86.5845 7.20859 86.5523 7.20859C86.5201 7.20859 86.5206 7.20859 86.4883 7.17658C85.4958 6.82412 84.5677 6.63191 83.6713 6.63191C83.3512 6.63191 83.0311 6.66397 82.711 6.69598C81.719 6.85618 80.5664 7.40085 80.5664 9.19495C80.5664 9.86775 80.7265 10.3804 81.0148 10.7968C81.5589 11.5338 82.327 11.9823 83.3512 11.9823C84.4716 11.9823 85.4641 11.6939 86.4244 10.925C86.4561 10.925 86.6484 10.7328 86.7123 10.7008L87.3203 10.2202V10.9891V11.9823H89.8494V5.7669C89.785 4.38924 89.017 3.29995 87.7366 2.81938ZM86.9363 8.58621C86.3922 9.54736 85.528 10.092 84.5038 10.092C84.4716 10.092 84.4077 10.092 84.3755 10.092C84.1837 10.092 83.9597 10.06 83.7357 10.028C82.9672 9.83574 82.551 9.22701 82.5832 8.394L82.6154 8.04159H87.2564L86.9363 8.58621Z" fill="black"/>
<path d="M79.4781 3.13965C78.6778 3.17169 78.0693 3.52411 77.6853 4.22894C77.6536 4.29302 77.3652 4.83767 77.3652 4.83767L76.7572 4.70951V4.42117V3.2678H74.3242V11.9501H76.7572V11.1492C76.7572 10.3482 76.7572 9.51522 76.7572 8.71427V8.55407C76.7572 8.26573 76.725 7.97739 76.7572 7.657C76.8211 6.5357 77.6853 5.7027 78.7418 5.57456C79.0936 5.5425 79.9261 5.51049 80.0222 5.51049V3.13965C79.8621 3.13965 79.6699 3.13965 79.4781 3.13965Z" fill="black"/>
<path d="M35.1122 9.93179C34.9201 9.93179 34.6961 9.93179 34.472 9.86772C33.8318 9.77164 33.4157 9.45124 33.2556 8.93864C33.1916 8.71437 33.1276 8.4901 33.1276 8.26583V4.38922H33.5117C34.3119 4.35718 35.1762 4.2931 36.0085 4.06884L35.4963 2.30674L33.1596 2.65916V0H30.4069V2.59508H28.4863V4.38922H30.3428C30.3428 4.38922 30.3428 8.07362 30.3428 9.03477C30.3428 9.64345 30.5029 10.1881 30.823 10.6687C31.2071 11.2454 31.7192 11.5978 32.5195 11.79C33.3837 12.0143 34.216 11.9823 35.1442 11.9823C35.2082 11.9823 35.3043 11.9823 35.3682 11.9823V9.93179C35.3362 9.93179 35.3042 9.93179 35.2723 9.93179C35.2402 9.93179 35.1762 9.93179 35.1122 9.93179Z" fill="black"/>
<path d="M56.2723 7.04837C56.2723 6.1833 56.8486 5.47849 57.6489 5.41442C58.6092 5.31829 59.2811 5.79889 59.4734 6.69591C59.5051 6.85611 59.5051 7.01631 59.5051 7.17651C59.5051 8.49006 59.5051 9.7716 59.5051 11.0852V11.9502H61.9381V10.6046C61.9381 9.0988 61.9381 7.59299 61.9381 6.08722C61.9381 5.73482 61.9059 5.47849 61.8742 5.25422C61.6819 4.16493 61.1056 3.52416 60.1136 3.23582C59.0571 2.94748 57.2965 3.17175 56.4646 4.61346L56.0801 5.35035C55.8883 4.26104 55.2481 3.49212 54.2878 3.20378C53.2313 2.91544 51.6308 3.17175 50.831 4.58142L50.4787 5.22216V3.26786H47.918V11.9502H50.4465C50.4465 11.9502 50.4465 8.49006 50.4465 7.24058C50.4465 7.08038 50.4465 6.92018 50.4787 6.76003C50.5748 6.11923 50.9911 5.63869 51.5991 5.47849C52.3032 5.28628 53.0073 5.51055 53.3914 6.02315C53.6798 6.40757 53.7115 6.8241 53.7115 7.14445C53.7115 8.36192 53.7115 11.9502 53.7115 11.9502H56.2723" fill="black"/>
<path d="M1.15233 3.36486C0.640181 3.94155 0.256073 4.55027 0 5.22309L8.0663 11.919C8.45038 11.6627 8.8345 11.4064 9.15461 11.054L9.31466 10.8938C12.3875 7.69 10.371 4.22989 9.15461 3.07652C6.94598 0.929967 3.42497 0.994047 1.31237 3.20467L1.15233 3.36486Z" fill="black"/>
<path d="M23.4297 7.08127C23.4297 10.189 20.933 12.6879 17.8282 12.6879C14.7233 12.6879 12.2266 10.189 12.2266 7.08127C12.2266 4.00562 14.7233 1.47461 17.8282 1.47461C20.933 1.50664 23.4297 4.00562 23.4297 7.08127Z" fill="black"/>
</g>
<defs>
<clipPath id="clip0_416_5756">
<rect width="90.2735" height="12.6871" fill="white"/>
</clipPath>
</defs>
</svg>
