<svg width="96" height="96" viewBox="0 0 96 96" fill="none" xmlns="http://www.w3.org/2000/svg">
<g clip-path="url(#clip0_273_966)">
<mask id="mask0_273_966" style="mask-type:luminance" maskUnits="userSpaceOnUse" x="0" y="0" width="96" height="96">
<path d="M96 0H0V96H96V0Z" fill="white"/>
</mask>
<g mask="url(#mask0_273_966)">
<path d="M48.0001 12.3429C42.9079 12.3429 38.0243 14.3657 34.4236 17.9664C30.8229 21.5671 28.8001 26.4507 28.8001 31.5429V33.6583C27.8415 33.8204 26.9713 34.3166 26.3437 35.059C25.7161 35.8015 25.3717 36.7422 25.3715 37.7143V42.5143C25.3714 43.5046 25.7285 44.4616 26.3772 45.2098C27.0259 45.958 27.9227 46.4472 28.9029 46.5875C29.2493 49.8606 30.4307 52.9899 32.3338 55.6753C34.2369 58.3607 36.798 60.5122 39.7715 61.9235V68.232H38.4001C31.853 68.232 25.5741 70.8328 20.9446 75.4623C16.3152 80.0918 13.7144 86.3707 13.7144 92.9178V96.0035H82.2858V92.9178C82.2858 86.3707 79.685 80.0918 75.0555 75.4623C70.426 70.8328 64.1471 68.232 57.6001 68.232H56.2286V61.9269C59.2021 60.5156 61.7632 58.3641 63.6663 55.6787C65.5695 52.9933 66.7509 49.864 67.0972 46.5909C68.0781 46.4505 68.9753 45.9609 69.6241 45.212C70.2728 44.4631 70.6295 43.5052 70.6286 42.5143V37.7143C70.6285 36.7422 70.284 35.8015 69.6565 35.059C69.0289 34.3166 68.1586 33.8204 67.2001 33.6583V31.5429C67.2001 26.4507 65.1772 21.5671 61.5765 17.9664C57.9758 14.3657 53.0922 12.3429 48.0001 12.3429Z" fill="#AE5D29"/>
<path d="M39.7715 61.9235V64.6663C42.3427 65.8868 45.1539 66.5182 48.0001 66.5143C50.9452 66.5143 53.7361 65.8526 56.2286 64.6663V61.9235C53.6574 63.144 50.8462 63.7753 48.0001 63.7715C45.1539 63.7753 42.3427 63.144 39.7715 61.9235Z" fill="black" fill-opacity="0.1"/>
<path d="M39.7715 63.3257C34.4504 64.5875 30.4801 67.0389 29.2218 69.9909C24.6429 71.8258 20.7186 74.9901 17.9546 79.0758C15.1907 83.1616 13.7138 87.9815 13.7144 92.9143V96H82.2858V92.9143C82.2863 87.9815 80.8094 83.1616 78.0455 79.0758C75.2815 74.9901 71.3572 71.8258 66.7784 69.9909C65.5201 67.0389 61.5498 64.5875 56.2286 63.3257V69.2572C56.2286 71.4395 55.3617 73.5325 53.8185 75.0757C52.2754 76.6188 50.1824 77.4857 48.0001 77.4857C45.8177 77.4857 43.7247 76.6188 42.1816 75.0757C40.6384 73.5325 39.7715 71.4395 39.7715 69.2572V63.3257Z" fill="#3C4F5C"/>
<path d="M37.7145 80.0023C36.8969 79.7253 36.0957 79.4025 35.3145 79.0355V96H37.7145V80.0023ZM58.2859 80.0023C59.1034 79.7254 59.9047 79.4026 60.6859 79.0355V92.0572C60.6859 92.3754 60.5595 92.6807 60.3344 92.9057C60.1094 93.1307 59.8041 93.2572 59.4859 93.2572C59.1676 93.2572 58.8624 93.1307 58.6374 92.9057C58.4123 92.6807 58.2859 92.3754 58.2859 92.0572V80.0023Z" fill="#F4F4F4"/>
<path d="M67.0699 70.1109C68.3601 70.6478 69.6023 71.2935 70.783 72.0412C70.3236 77.3555 60.2984 81.6001 48.0001 81.6001C58.6047 81.6001 67.2001 76.9955 67.2001 71.3143C67.2001 70.9063 67.1556 70.5052 67.0699 70.1109ZM28.9304 70.1109C28.8443 70.5051 28.8006 70.9074 28.8001 71.3109C28.8001 76.9955 37.3956 81.5966 48.0001 81.5966C35.7019 81.5966 25.6801 77.3521 25.2173 72.0378C26.398 71.2901 27.6402 70.6443 28.9304 70.1075V70.1109Z" fill="black" fill-opacity="0.16"/>
<path fill-rule="evenodd" clip-rule="evenodd" d="M41.5268 56.184C41.7067 54.5903 42.4683 53.119 43.6655 52.0519C44.8628 50.9848 46.4117 50.3968 48.0155 50.4007C49.6193 50.4045 51.1653 50.9998 52.3575 52.0726C53.5497 53.1454 54.3042 54.6203 54.4765 56.2149C54.5039 56.4789 54.2125 56.9143 53.8422 56.9143H42.2057C41.8285 56.9143 41.4857 56.5097 41.5268 56.184Z" fill="black" fill-opacity="0.7"/>
<path d="M53.3451 56.9143H42.6514C42.8031 56.3772 43.0722 55.8804 43.4392 55.4599C43.8063 55.0393 44.262 54.7055 44.7737 54.4824C45.2854 54.2594 45.8402 54.1527 46.3981 54.1701C46.956 54.1875 47.5031 54.3285 47.9999 54.5829C48.4966 54.3291 49.0434 54.1886 49.6009 54.1716C50.1584 54.1545 50.7127 54.2613 51.224 54.4843C51.7352 54.7073 52.1906 55.0409 52.5574 55.4611C52.9242 55.8813 53.1932 56.3777 53.3451 56.9143Z" fill="#FF4F6D"/>
<path d="M52.3095 52.0286C52.1358 52.0857 51.9541 52.1146 51.7712 52.1143H44.5712C44.2969 52.1143 44.0329 52.0457 43.8032 51.9326C44.9765 50.941 46.4636 50.3979 47.9998 50.4C49.6524 50.4 51.1609 51.0172 52.3095 52.0286Z" fill="white"/>
<path fill-rule="evenodd" clip-rule="evenodd" d="M43.8857 44.5714C43.8857 46.0868 45.7269 47.3143 48 47.3143C50.2732 47.3143 52.1143 46.0868 52.1143 44.5714" fill="black" fill-opacity="0.16"/>
<path d="M41.1431 38.4C41.1431 38.9456 40.9264 39.4689 40.5406 39.8547C40.1548 40.2404 39.6315 40.4572 39.086 40.4572C38.5404 40.4572 38.0171 40.2404 37.6313 39.8547C37.2455 39.4689 37.0288 38.9456 37.0288 38.4C37.0288 37.8545 37.2455 37.3312 37.6313 36.9454C38.0171 36.5596 38.5404 36.3429 39.086 36.3429C39.6315 36.3429 40.1548 36.5596 40.5406 36.9454C40.9264 37.3312 41.1431 37.8545 41.1431 38.4Z" fill="black" fill-opacity="0.6"/>
<path fill-rule="evenodd" clip-rule="evenodd" d="M53.006 39.4149C53.5511 38.0709 54.9088 37.0629 56.5614 36.9463C58.2071 36.8332 59.6883 37.632 60.4151 38.88C60.6311 39.2537 60.3808 39.5863 60.0963 39.3703C59.2048 38.7086 57.9877 38.3417 56.6677 38.4343C55.4796 38.5 54.3502 38.9721 53.4688 39.7715C53.1808 40.0389 52.8483 39.8057 53.006 39.4149Z" fill="black" fill-opacity="0.6"/>
<path d="M34.1521 33.3189C35.6058 31.344 36.511 31.44 38.7155 33.1063L38.9453 33.2777C40.5978 34.536 41.383 34.9714 42.5144 34.9714C42.6963 34.9714 42.8707 34.8992 42.9993 34.7706C43.1279 34.642 43.2001 34.4676 43.2001 34.2857C43.2001 34.1039 43.1279 33.9294 42.9993 33.8008C42.8707 33.6722 42.6963 33.6 42.5144 33.6C41.8047 33.6 41.1772 33.2503 39.775 32.1874L39.5418 32.0091C38.2527 31.0389 37.4984 30.6171 36.559 30.5143C35.2973 30.3771 34.1418 31.0217 33.0481 32.5131C32.9882 32.5851 32.9436 32.6685 32.9171 32.7584C32.8906 32.8482 32.8829 32.9425 32.8942 33.0354C32.9056 33.1284 32.9359 33.218 32.9833 33.2988C33.0306 33.3796 33.094 33.4499 33.1695 33.5052C33.245 33.5606 33.3311 33.5999 33.4224 33.6207C33.5137 33.6415 33.6083 33.6434 33.7004 33.6263C33.7924 33.6091 33.88 33.5733 33.9577 33.521C34.0354 33.4688 34.1016 33.4011 34.1521 33.3223V33.3189ZM61.8481 33.3189C60.3944 31.344 59.4893 31.44 57.2847 33.1063L57.055 33.2777C55.399 34.536 54.6138 34.9714 53.4858 34.9714C53.304 34.9714 53.1295 34.8992 53.0009 34.7706C52.8724 34.642 52.8001 34.4676 52.8001 34.2857C52.8001 34.1039 52.8724 33.9294 53.0009 33.8008C53.1295 33.6722 53.304 33.6 53.4858 33.6C54.1955 33.6 54.823 33.2503 56.2253 32.1874L56.4584 32.0091C57.7475 31.0389 58.5018 30.6137 59.4413 30.5109C60.703 30.3737 61.8584 31.0183 62.9521 32.5097C63.0121 32.5817 63.0566 32.6651 63.0831 32.7549C63.1096 32.8448 63.1174 32.9391 63.106 33.032C63.0946 33.125 63.0643 33.2146 63.017 33.2954C62.9696 33.3762 62.9062 33.4464 62.8307 33.5018C62.7552 33.5571 62.6691 33.5964 62.5778 33.6173C62.4865 33.6381 62.3919 33.64 62.2998 33.6228C62.2078 33.6057 62.1202 33.5699 62.0425 33.5176C61.9648 33.4653 61.8987 33.3977 61.8481 33.3189Z" fill="black" fill-opacity="0.6"/>
<path d="M33.0515 28.8686C31.3783 29.3143 29.7429 29.8217 28.1143 30.3566C24.2983 31.6046 25.824 28.2652 27.0857 25.5429L65.4137 22.2789C67.4777 24.792 73.9235 36.336 67.8549 31.536C66.792 30.696 64.5737 30.0103 63.5143 29.0434C62.712 28.3166 61.7452 28.4332 61.3612 27.5074L60.4869 27.816C59.111 27.3683 57.7428 26.8973 56.3829 26.4034L56.1943 26.0366L55.6217 26.256L52.4949 26.1429C51.5932 26.1326 47.7875 26.2183 46.9132 26.2903C46.9132 26.2903 46.4915 25.9749 45.9052 25.3714L45.4492 26.4754C45.4492 26.4754 41.3623 27.0926 40.6217 27.1474L40.2583 26.4789L39.3189 27.4972C37.9817 27.8057 34.5737 28.4674 33.0446 28.872L33.0515 28.8686Z" fill="black" fill-opacity="0.16"/>
<path d="M19.063 42.1852C17.1087 36.0617 20.0058 29.4549 22.8755 25.9783C23.383 25.3612 23.9247 24.2263 24.6104 22.7897C27.4698 16.8 32.8047 5.62973 48.5418 5.5543C65.6607 5.47201 69.0275 17.904 70.3681 22.8446C70.9304 24.9292 71.9281 26.8183 72.8984 28.7452C74.2698 31.488 75.7784 34.4846 76.2927 36.648C76.6664 38.2046 76.8755 39.7509 76.6938 41.3452C76.6527 41.7086 76.3235 42.792 76.5292 43.008C76.7144 43.2034 77.1738 43.4023 77.5921 43.5806C80.6812 44.9177 83.1121 47.1463 84.3807 50.3074C85.9955 54.3257 84.0412 59.04 80.5201 61.3372C80.0401 61.6457 80.2664 62.2629 80.2595 62.7429C80.2031 65.4911 79.7017 68.2121 78.7749 70.8C78.2881 72.1509 77.6881 73.5154 76.5361 74.5646C75.559 75.4492 74.1567 76.08 72.8127 76.4572C72.3498 76.5874 72.3567 76.7246 72.3292 76.8583C71.935 78.8332 73.255 81.3566 73.9064 83.2217C74.4207 84.6926 74.935 86.1669 75.2092 87.6789C75.6138 89.88 74.1738 97.2172 70.3681 95.496C72.2607 94.5909 72.343 92.664 71.6984 92.1223C70.2104 90.8812 67.6664 91.5772 65.9041 91.8686C64.6355 92.0777 63.2881 92.2972 62.0812 92.016C60.7767 91.6949 59.544 91.1321 58.447 90.3566C52.3955 85.5669 53.7018 77.6572 58.8138 68.2766L58.6252 68.2663C58.2481 68.2457 58.0527 68.232 57.5967 68.232H56.2252V61.9269C59.5099 60.3696 62.2849 57.9119 64.2278 54.8396C66.1706 51.7673 67.2013 48.2065 67.2001 44.5714V31.5429C67.2001 31.0389 67.183 30.5349 67.1452 30.0412C66.7335 29.816 66.315 29.6034 65.8904 29.4034C65.0058 28.9783 64.0938 28.536 63.5212 28.0149C63.2155 27.7563 62.8675 27.5522 62.4927 27.4114C62.0161 27.2057 61.5944 27.0206 61.3681 26.4789L60.4938 26.7874C59.1179 26.3398 57.7497 25.8689 56.3898 25.3749L56.2012 25.008L55.6287 25.2274L52.5018 25.1143C51.6001 25.104 47.7944 25.1897 46.9201 25.2617C46.9201 25.2617 46.4984 24.9463 45.9121 24.3429L45.4561 25.4469C45.4561 25.4469 41.3692 26.064 40.6287 26.1189L40.2652 25.4503L39.3258 26.4686C38.8355 26.5817 38.071 26.7429 37.2241 26.9177C35.7498 27.2263 34.0218 27.5863 33.0515 27.8434C31.6782 28.2126 30.3143 28.6162 28.9612 29.0537C28.855 29.8697 28.8001 30.6994 28.8001 31.5463V44.5749C28.7992 48.209 29.8297 51.7687 31.7719 54.8404C33.714 57.912 36.4881 60.3694 39.7715 61.9269V68.2286H38.4001C36.5075 68.2266 34.6209 68.4418 32.7772 68.8697C32.743 68.928 32.7018 68.9794 32.6675 69.0412C31.0287 71.424 27.9121 73.2892 26.6812 75.7269C26.1772 76.7212 26.7464 78.408 27.2504 79.344C28.3475 81.3669 31.0732 82.3132 33.943 81.8572C33.0755 82.584 31.3544 83.1669 30.1887 83.208C28.6012 83.2663 26.6607 82.6526 25.2995 81.9806C25.5052 83.2149 26.2184 83.9074 26.8835 84.9292C24.991 84.8332 23.1532 82.5086 22.5361 80.7977C21.7818 82.344 21.3567 86.5029 21.7304 87.6652C16.8824 85.4914 13.1144 81 13.399 75.4389C13.5841 71.8183 15.8504 68.9589 16.6492 65.5303C16.807 64.8583 16.6972 64.7143 16.2892 64.1794L16.2721 64.1554C14.7704 62.1909 12.9738 60.4903 12.0104 58.1623C11.1395 56.0606 11.1087 53.6434 11.791 51.4766C12.5487 49.0492 14.8972 46.6217 16.879 44.5714C17.6421 43.8101 18.3708 43.015 19.063 42.1886V42.1852Z" fill="#A55728"/>
<path d="M58.8002 68.2972L58.8894 68.2766C58.8894 68.2766 60.4117 65.184 62.7465 62.3177C62.2905 58.7417 64.7557 54.1886 64.7557 54.1886L64.6357 54.1612C62.6837 57.5407 59.7523 60.2486 56.2288 61.9269V68.2286H57.6002C58.0528 68.2286 58.2448 68.2423 58.6288 68.2629L58.8139 68.2766L58.8002 68.3006V68.2972ZM30.6071 52.7109L30.5591 52.7314C32.6231 56.1566 35.2322 65.4 32.8048 68.7292L32.8905 68.8457C34.6982 68.4345 36.5463 68.2275 38.4002 68.2286H39.7717V61.9234C35.7427 60.0057 32.5038 56.7498 30.6071 52.7109Z" fill="black" fill-opacity="0.24"/>
<path d="M42.9873 17.2697C43.505 16.6354 43.9782 15.9566 44.1873 15.1577C44.2662 14.8594 44.3485 14.5509 44.4925 14.3691C42.8605 16.08 41.4753 17.7669 40.2753 19.728C40.5393 19.3783 41.2113 19.0354 41.5645 18.7303C42.0793 18.2858 42.5553 17.7984 42.9873 17.2731V17.2697ZM61.1999 14.3931C61.097 15.5931 61.361 16.7726 61.4159 17.9589C61.4159 17.8423 61.5325 17.6434 61.6388 17.4549C61.9089 16.9986 62.0198 16.4656 61.9542 15.9394C61.9062 15.5966 61.7656 15.2709 61.5873 14.9623C61.5188 14.8389 61.2033 14.5063 61.2033 14.3931H61.1999ZM21.737 41.2731C22.0306 43.3782 22.5443 45.4467 23.2696 47.4446C23.9759 49.4057 24.785 51.3737 25.9439 53.1669C27.0308 54.8366 28.3199 56.3966 29.3588 58.0903C29.201 57.9017 28.9405 57.6891 28.7073 57.4971C28.5393 57.36 28.385 57.2366 28.2959 57.1371C27.1885 55.9714 26.3005 54.6686 25.4536 53.352C24.3393 51.6137 23.5028 49.7246 22.7793 47.8389C21.3599 44.1429 19.9336 39.6617 21.1679 35.7566C21.0993 36.0206 21.3393 36.5897 21.3736 36.8537C21.5862 38.3177 21.5382 39.8023 21.7405 41.2697L21.737 41.2731ZM21.1782 35.7257C21.1753 35.7358 21.173 35.7462 21.1713 35.7566L21.1782 35.7257ZM29.3588 58.0903C29.4788 58.2823 29.5302 58.2891 29.3588 58.0903V58.0903ZM26.009 56.5851C25.1656 55.3714 24.2776 54.1303 23.5782 52.848C22.9679 51.7269 22.5325 50.4994 21.7645 49.4709C21.6548 49.32 21.5176 49.1383 21.4902 49.0183C21.7233 51.1269 22.673 53.3863 24.1405 54.9497C24.6753 55.5223 25.5428 55.992 26.009 56.5851ZM24.3702 58.7383C25.5873 60.048 26.7496 61.3989 27.6102 62.9143C28.2102 63.9669 28.7142 65.1909 28.7965 66.4149C28.8102 66.5966 28.8239 66.8263 28.865 66.9531C28.1039 65.4823 27.5245 63.9257 26.6193 62.5166C25.7279 61.128 24.5793 59.8491 23.3828 58.6491C22.1142 57.3806 20.8422 56.1874 20.1599 54.5863C19.5735 53.2324 19.3388 51.7523 19.4776 50.2834C19.4845 50.7086 19.7382 51.2503 19.9713 51.7509C20.4753 52.8274 20.681 54.0137 21.2296 55.0766C21.9599 56.4754 23.273 57.5589 24.3736 58.7383H24.3702ZM22.7073 59.7189C22.5359 59.5509 21.881 59.1394 21.7645 58.9303C22.0045 59.4446 22.2719 59.9417 22.5256 60.4491C23.0502 61.5051 23.7976 62.4069 24.5588 63.3291L24.929 63.7749C24.6548 63.4251 24.5793 62.6469 24.4045 62.232C24.0197 61.2854 23.4417 60.4294 22.7073 59.7189ZM19.1656 61.896C19.5703 62.4854 19.9969 63.0596 20.4445 63.6171C21.0959 64.4503 21.7473 65.2834 22.2445 66.1886C23.2148 67.9714 23.6399 69.8949 23.7256 71.8629C23.7668 72.7886 23.7668 73.7349 23.6399 74.6606C23.5576 75.2674 23.4548 75.8949 23.2216 76.4606C23.1359 76.6663 23.0365 76.9131 23.0056 77.0914C22.985 76.296 22.9953 75.5006 23.0056 74.7086C23.0502 71.8971 23.0913 69.12 21.6273 66.4937C21.0856 65.5234 20.3656 64.6423 19.6456 63.7543C19.1799 63.1964 18.7339 62.6224 18.3085 62.0331C17.3553 60.6754 16.4228 59.3417 15.6616 57.8914C16.1279 58.4811 16.9645 58.944 17.4856 59.5269C18.137 60.2571 18.6342 61.0971 19.1656 61.8926V61.896Z" fill="white"/>
<path d="M23.0056 77.0914C22.9782 77.2731 23.009 77.2286 23.0056 77.0914V77.0914ZM19.7279 69.9428L19.7347 69.4286C19.7347 69.6 20.0159 69.9463 20.0913 70.1246C20.6433 71.4103 20.6296 72.696 20.1222 74.0057C19.4707 75.6857 18.449 77.1771 17.1667 78.5657C17.4513 78.192 17.6296 77.6743 17.801 77.1737C18.1473 76.1657 18.6925 75.2468 19.1039 74.2628C19.6799 72.888 19.697 71.4103 19.7245 69.9428H19.7279ZM16.7725 75.84C17.1447 75.4405 17.41 74.9534 17.5439 74.424C17.6125 74.1154 17.4033 73.5051 17.5439 73.2651C17.2711 73.647 17.0573 74.0677 16.9096 74.5131C16.841 74.7497 16.9096 75.6514 16.7725 75.84ZM31.4947 22.0526C32.7582 20.9085 33.8826 19.6197 34.8445 18.2126C35.2715 17.6084 35.6411 16.9656 35.9485 16.2926C35.993 16.1966 36.0513 15.9943 36.113 15.7646C36.2159 15.3908 36.3359 14.9417 36.4696 14.7463C35.5439 15.7406 34.8102 16.8034 34.0593 17.8903C33.5622 18.6171 33.0342 19.3234 32.5713 20.0743C32.4479 20.2731 32.3382 20.5371 32.2182 20.808C32.0159 21.2777 31.7999 21.7783 31.4982 22.0526H31.4947ZM31.145 19.0937C31.193 18.8811 31.2376 18.6754 31.3062 18.5554C31.5633 18.1028 31.9576 17.7154 32.3965 17.3863C32.2765 17.4891 32.1976 17.784 32.1256 18.0548C32.0742 18.24 32.0296 18.4148 31.9747 18.5108C31.6817 18.9934 31.315 19.4273 30.8879 19.7966C31.0113 19.6766 31.0799 19.3783 31.1416 19.0971L31.145 19.0937ZM72.2742 51.6343C72.4799 50.4926 72.7027 49.2891 73.2822 48.2606C73.5427 47.7943 73.8582 47.3417 74.1736 46.896C74.3382 46.656 74.4959 46.4228 74.6365 46.1726C74.8627 45.7748 75.137 45.2948 75.4113 45.1337C73.985 45.9668 72.8673 47.0331 72.2707 48.4388C71.969 49.1486 71.8593 49.8788 71.897 50.6297C71.9245 51.168 72.1576 51.7406 72.161 52.2651C72.1885 52.0526 72.2296 51.8434 72.2707 51.6308L72.2742 51.6343ZM71.657 44.736C71.5771 45.1596 71.4625 45.5758 71.3142 45.9806C71.1475 46.4239 70.9445 46.8528 70.7073 47.2629C70.5599 47.52 70.0285 48.0583 70.0285 48.3428C69.9976 46.6628 70.6216 45.144 71.801 43.8C71.6707 44.0228 71.705 44.496 71.657 44.7394V44.736ZM71.3827 56.8183C72.1645 56.808 73.0353 57.6823 73.6147 58.2651C74.4445 59.0983 75.377 59.8286 76.0833 60.7714L76.1039 60.7954L76.0867 60.7714C75.8536 60.4423 75.8467 59.832 75.665 59.4514C75.4182 58.9371 75.041 58.4571 74.6159 58.0354C73.8205 57.2503 72.6376 56.64 71.3862 56.8183H71.3827ZM71.1153 60.3771C71.0536 60.3566 70.505 60.1988 70.3336 60.2571C70.5359 60.168 70.7793 60.0617 70.9953 60.0343C72.4627 59.8388 74.2525 61.1109 74.4479 62.3383C74.2833 61.9166 73.409 61.5703 73.0147 61.3611C72.3907 61.0286 71.7942 60.6274 71.1153 60.3771ZM70.3336 60.2571L70.313 60.2674L70.3233 60.2606H70.3336V60.2571ZM71.7359 63.0514C71.3135 62.927 70.8664 62.9117 70.4365 63.0068C70.2753 63.0514 69.9427 63.1508 69.9016 63.1406C70.8685 63.3668 71.777 63.4766 72.7816 63.4526C72.6307 63.4526 72.3839 63.336 72.1507 63.2263C71.9896 63.1508 71.8422 63.0788 71.7359 63.0548V63.0514ZM67.889 67.8034C67.8445 67.8034 67.8445 67.8068 67.889 67.8034V67.8034ZM67.889 67.8034C69.3496 67.728 71.0605 67.9406 72.449 68.2903C73.1337 68.4617 73.7914 68.727 74.4033 69.0788C74.8833 69.3566 75.7507 69.7406 76.073 70.152C74.7907 67.944 72.0102 66.7954 69.161 67.3646C68.7976 67.44 68.2456 67.776 67.8925 67.8068L67.889 67.8034ZM68.489 72.0926C69.5965 72.2366 70.7347 72.0686 71.8387 71.9417C72.3119 71.8903 72.8776 71.6468 73.3405 71.7737C72.4126 71.4668 71.4368 71.3309 70.4605 71.3726C69.4559 71.4171 68.4376 71.736 67.5153 72.0686C67.7485 72 68.1359 72.048 68.489 72.0926ZM63.8947 75.6583C63.8742 76.4228 63.881 77.208 63.929 77.9691C64.0147 79.3303 64.8033 80.52 65.9622 81.4251C66.4328 81.7748 66.9303 82.0867 67.4502 82.3577C68.3107 82.8343 69.1645 83.304 69.7233 84.1063C70.4605 85.1691 70.5222 86.4926 70.0045 87.6583C69.9187 87.8503 69.8296 88.056 69.8262 88.2V88.1829C69.8365 86.856 69.8502 85.3166 68.921 84.2057C68.3759 83.5543 67.5942 83.1428 66.809 82.7348C66.2502 82.4434 65.6845 82.152 65.2079 81.7646C64.0867 80.8594 63.233 79.6731 63.041 78.3428C62.8867 77.2697 62.9622 75.4011 64.0627 74.664C63.857 74.8183 63.8982 75.4697 63.8913 75.6583H63.8947ZM64.0799 74.6537C64.0751 74.6569 64.0705 74.6603 64.0662 74.664L64.0833 74.6537H64.0799ZM63.0856 83.2011L63.113 83.2286C63.1043 83.22 63.0963 83.2109 63.089 83.2011H63.0856ZM66.9085 87.6068C66.8399 85.8549 65.6399 84.5348 64.1862 83.7188C63.9805 83.6023 63.2947 83.4 63.113 83.2286C64.1279 84.3394 65.2799 85.3577 66.185 86.5646C66.3427 86.7703 66.8913 87.3531 66.9085 87.6068ZM80.9725 52.7314C81.3596 53.0886 81.6709 53.52 81.8879 54C82.1544 54.5272 82.3101 55.1033 82.3455 55.693C82.3809 56.2826 82.2952 56.8733 82.0936 57.4286C82.1416 57.2503 82.0422 56.9246 81.9633 56.6674C81.7747 56.064 81.5965 55.4674 81.3599 54.8777C80.9553 53.88 80.6262 52.944 79.9267 52.0663C80.1119 52.296 80.7222 52.512 80.9725 52.728V52.7314ZM63.8227 16.7314C63.8648 17.1856 63.7472 17.6403 63.4902 18.0171C63.521 17.9486 63.449 17.64 63.3942 17.3863C63.2776 16.8823 63.3462 16.3714 63.3805 15.8537C63.3805 16.0731 63.785 16.4606 63.8227 16.7348V16.7314ZM46.1382 17.1668C45.8879 17.5646 45.4525 17.8903 45.0067 18.12C45.2056 18.0068 45.3839 17.4343 45.5347 17.2457C45.785 16.9234 46.0936 16.6148 46.4193 16.344C46.3473 16.4194 46.2102 17.0468 46.1347 17.1668H46.1382Z" fill="white"/>
</g>
</g>
<defs>
<clipPath id="clip0_273_966">
<rect width="96" height="96" fill="white"/>
</clipPath>
</defs>
</svg>
